<?xml version="1.0" encoding="utf-8"?>
<!-- Generator: Adobe Illustrator 26.4.1, SVG Export Plug-In . SVG Version: 6.00 Build 0)  -->
<svg version="1.1" id="图层_1" xmlns="http://www.w3.org/2000/svg" xmlns:xlink="http://www.w3.org/1999/xlink" x="0px" y="0px"
	 viewBox="0 0 100.1 108" style="enable-background:new 0 0 100.1 108;" xml:space="preserve">
<style type="text/css">
	.st0{fill-rule:evenodd;clip-rule:evenodd;fill:#FFBC00;}
	.st1{fill-rule:evenodd;clip-rule:evenodd;fill:#FB4747;}
</style>
<g id="图层_2_00000013884297039140565950000008467795641810504623_">
	<polygon class="st0" points="77.3,107.8 37.3,108 32.5,96.5 66.5,82.2 	"/>
	<path class="st0" d="M56.9,88.1"/>
</g>
<g id="Layer_1">
	<g>
		<g>
			<path class="st1" d="M14.9,35.4c0.7-0.6,1.3-1,2.1-1c0.4,0,0.8,0,1.2,0.1c1.1,0.3,1.5,0.8,2.4,1.6c4.2,3.7,8.3,7.8,12.3,12.5
				c2.1,1.9,2.5,3.9,0.9,5.8l-3,3.3c-1.5,1.5-3.4,1.4-5.5-0.1C16,49.7,5,45.7,14.9,35.4L14.9,35.4z M14.9,53.4
				c0.2,6.9,1.5,11.1,3.9,15.7c3.6,4.6,6.5,9.1,8.1,13.1c0.6,1.5,1,2.6,1.7,4.2c0.8,2,1.3,3.5,1.6,4.2c0.7,1.9,1.8,4.7,3.4,8.5
				c13.3-0.1,26.6-0.2,39.9-0.3c-2.1-5.2-3.1-7.6-3.7-8.7c0-0.1-1.6-3.7-1.8-4.2c-0.8-2-1.2-3.2-1.2-4.8c0-0.5,0.1-0.9,0.1-1.2
				c0.7-5.2,5.9-5.4,11.8-13.6c9.4-13.2,14.5-18.1,6.8-31.7L79.8,24c-7-12.7-21.5-1-32.3,5.2c-3.2,3.9,4,12.4,10.3,10l8.1-3.1
				l2.4,5.7C48.4,39.3,39.5,52.3,36,56.5c-0.8,1-1.6,2.1-2.4,3.2c-4.2,5.6-8.4,1.7-12.4-1.4C19.1,56.7,16.9,54.9,14.9,53.4z M58.5,0
				c0.4,0,0.8,0.2,1.3,0.3c2.1,0.9,4.6,5.2,5.6,7.2c0.7,1.3,2.6,4.7,4.2,7.5l-13.4,5.4c-2.2-3.5-4.1-7-6-9.9C49,9,48.8,7.4,49.5,5.9
				c0.8-1.7,2.7-3,4.2-4C54.7,1.4,57.2-0.1,58.5,0L58.5,0z M42.6,8.9c0.4,0,0.8,0.1,1.3,0.2c1.1,0.4,1.5,1,2.3,1.8
				c1.3,1.4,2.6,3.1,3.7,5c0.7,1,2.1,3.3,3.6,5.6c-1.7,0.6-4.1,1.8-6.5,3.9c-2.2,1.9-3.6,3.8-4.5,5.2C39.7,27,37.3,23,34.9,20
				c-1.3-1.5-1.6-3-1-4.5C34.9,12.9,40,8.9,42.6,8.9z M28.3,20.9c0.4,0,0.8,0,1.2,0.1c1.1,0.3,1.5,0.8,2.4,1.6
				c1.4,1.2,2.7,2.8,4,4.5c1.7,2.2,8.1,10.4,9,12.2c0.6,1.3,0.7,2.6-0.5,4L40.6,47c-1.5,1.5-3.4,1.4-5.5-0.1
				c-4.9-4.7-9.3-10.6-13.2-14.8c-1.3-1.3-1.7-2.7-1.3-4.2C21.2,25.5,25.9,21,28.3,20.9L28.3,20.9z"/>
		</g>
	</g>
	<path class="st1" d="M32.2,94.8"/>
</g>
</svg>
