<?xml version="1.0" standalone="no"?><!DOCTYPE svg PUBLIC "-//W3C//DTD SVG 1.1//EN" "http://www.w3.org/Graphics/SVG/1.1/DTD/svg11.dtd"><svg t="1593852771275" class="icon" viewBox="0 0 1024 1024" version="1.1" xmlns="http://www.w3.org/2000/svg" p-id="14491" xmlns:xlink="http://www.w3.org/1999/xlink" width="200" height="200"><defs><style type="text/css"></style></defs><path d="M643.264 1013.184c134.4-30.4 314.304-144.128 299.392-238.656-4.352-12.8-17.344-8.704-26.048-4.352-334.208 156.224-676.864-186.56-499.904-355.904C118.208 627.2 287.488 1082.56 643.264 1013.184z" fill="#0A63BD" p-id="14492"></path><path d="M272.256 694.208c0 179.968 123.84 292.352 258.816 317.952a310.528 310.528 0 0 0 112.192 1.024C630.208 1017.6 563.2 1024 513.088 1024c-295.04 0-512-214.784-512-512 2.176-381.824 613.952-308.096 627.2-47.744-115.2-180.032-351.68 4.352-356.032 229.952z" fill="#0F71D2" p-id="14493"></path><path d="M1022.912 446.912c0 299.392-412.224 273.344-429.568 186.56-4.352-21.696 60.736-69.376 41.408-148.48C567.296 225.6 55.296 143.168 1.088 512A512 512 0 0 1 513.088 0c282.752 0 509.824 229.952 509.824 446.912z" fill="#3BD9FE" p-id="14494"></path></svg>