<?xml version="1.0" standalone="no"?><!DOCTYPE svg PUBLIC "-//W3C//DTD SVG 1.1//EN" "http://www.w3.org/Graphics/SVG/1.1/DTD/svg11.dtd"><svg t="1593852435923" class="icon" viewBox="0 0 1024 1024" version="1.1" xmlns="http://www.w3.org/2000/svg" p-id="8580" xmlns:xlink="http://www.w3.org/1999/xlink" width="200" height="200"><defs><style type="text/css"></style></defs><path d="M371.772 972.672A481.567 481.567 0 1 0 652.24 51.28a481.567 481.567 0 1 0-280.467 921.393z" fill="#FFFFFF" p-id="8581"></path><path d="M23.322 506.615c0 279.882 220.17 506.617 491.826 506.617s491.827-226.827 491.827-506.616S786.712 0 515.148 0 23.322 226.827 23.322 506.615" fill="#1370B3" p-id="8582"></path><path d="M23.322 547.378c0 257.329 220.17 465.946 491.826 465.946s491.827-208.618 491.827-465.945S786.712 81.523 515.148 81.523 23.322 290.143 23.322 547.378z" fill="#1678BC" p-id="8583"></path><path d="M755.562 118.867l-79.029-28.84 99.92 88.365-36.974-2.31-7.764 15.805a101.674 101.674 0 0 0-68.03-22.646 36.14 36.14 0 0 0-25.88 23.848l5.916 25.419 76.44 6.193c6.008 9.243 18.486 8.503 18.486 26.62l28.561-1.202 19.873-6.655a263.151 263.151 0 0 1 48.25 105.465l-22.554 16.174-6.1 19.873-0.555 69.6s-14.235 14.697-16.453 10.168 0.647-57.122-7.672-62.299a23.663 23.663 0 0 0-25.326-1.016 68.953 68.953 0 0 0-35.124-36.326 182.182 182.182 0 0 0-15.436-28.283 16.36 16.36 0 0 0-12.108 9.243 36.326 36.326 0 0 0-2.22-26.066l-35.494-6.932-24.586-1.664a23.755 23.755 0 0 0-17.007 21.999l-13.865 11.924-8.319 29.947c-2.126 7.95 25.604 20.427 36.973 17.562s32.443 28.839 32.443 28.839l-5.639 22.646s-8.687 15.897-10.813 12.57l-20.982-32.906a45.477 45.477 0 0 0-45.015 0c-3.512 31.426-4.437 69.231 0 84.945s10.907 22.553 17.562 20.335a266.294 266.294 0 0 0 32.906-22.646s24.31 65.626 24.31 69.14 36.232 30.5 38.36 30.5 9.889 3.79 11.275-4.529-4.344-22.645-1.11-24.956 7.673 2.218 9.244 13.587a315.745 315.745 0 0 1 0.647 56.66c-4.437 17.008-26.436 40.763-26.436 40.763s-6.562 24.864-3.235 26.066 14.327 34.015 18.487 42.98 78.011 238.565 224.146 46.955c89.38-117.11 109.069-278.402 59.34-411.41-31.704-84.853-107.313-129.405-159.351-236.719z" fill="#10549A" p-id="8584"></path><path d="M128.046 99.086c0.647 35.31 15.714 70.063 52.686 104.17a226.457 226.457 0 0 1 119.329-2.865c42.519-46.216 88.18-63.223 135.782-60.542a203.348 203.348 0 0 0-69.325 102.969 59.248 59.248 0 0 0 34.108 38.45c33.276 4.991 70.247 1.664 106.573 11.462l-2.126 28.284c-22.553 42.425-69.6 55.46-107.775 90.028a133.933 133.933 0 0 1-2.218 67.197 59.248 59.248 0 0 0-43.813-16.083l-2.68 1.664c-46.77 47.048-7.302 86.885 66.458 124.043a112.397 112.397 0 0 0 58.232-4.622c39.006-21.999 135.689-44.736 153.806 32.814-9.243 11.369-22.461 12.94-36.973 11.369-4.99 4.252-14.79 6.193-19.78 10.167-57.123 46.215-116.094 63.777-184.863 52.686a178.762 178.762 0 0 0 47.787 41.317c38.451 2.773 60.265 8.134 62.761 16.453h-36.049c64.703 28.838 127.926 33.09 189.023 1.57a43.813 43.813 0 0 1-9.243 22.738c20.427-17.47 39.005-39.744 60.542-55.458l3.328 21.537c35.216-7.857 64.147-64.703 85.683-177.654l14.882 40.948c14.05-61.56 13.68-134.95 7.21-214.534a179.594 179.594 0 0 1 43.35 73.021c2.772-112.581-29.116-216.751-107.682-277.294 17.284-3.605 43.627 7.21 94.557 46.216-28.192-56.845-77.828-109.808-146.504-159.537 93.91 27.73 178.392 85.314 243.926 195.862 0.647-23.2-53.518-100.01-103.985-143.73l2.866-14.881 59.433 54.441 3.235-12.385c77.92 93.079 94.187 173.586 95.481 251.043a453.375 453.375 0 0 1-27.73 152.788c33.553-23.291 48.435-47.879 32.814-126.168l11.924-49.08a417.789 417.789 0 0 1-22.646 260.286c-19.41 54.35-67.197 108.237-100.843 162.401l42.98-30.595 46.216-93.817a155.1 155.1 0 0 1-14.696 95.02 368.153 368.153 0 0 1-134.025 125.058c-0.555 14.05-8.596 29.117-28.377 45.477-66.458 51.484-157.133 73.02-270.361 66.828l16.453 15.806a394.404 394.404 0 0 1-133.194-21.26l26.159 17.378C186.832 956.756 26.28 789.825 23.506 562.629L0.03 605.702c-0.832-48.527 16.545-90.49 24.587-135.597l3.882-36.972-16.823 40.67c7.857-57.308 19.78-116.094 63.685-186.712a275.26 275.26 0 0 1 52.686-188.005z" fill="#E36724" p-id="8585"></path><path d="M366.518 242.818c-15.898 66.457-10.537 124.688 30.78 168.224a256.311 256.311 0 0 1 25.512-20.797c23.662-14.42 52.223-25.512 82.171-69.231l2.218-28.377c-16.73-6.193-60.45-8.78-106.573-11.369a54.072 54.072 0 0 1-34.108-38.451z m-18.023 221.834c-94.928-4.252-123.581 58.232-109.44 163.51 2.127-56.29 89.105-124.688 89.29-125.983a56.475 56.475 0 0 1 20.15-37.99z m250.766 163.88c-20.243-10.63-49.451-11-91.045 2.774-92.246 22.922-168.317 9.89-231.818-30.503 10.168 34.57 38.822 64.702 103.34 86.978a219.524 219.524 0 0 0 103.06-2.31 179.04 179.04 0 0 0 55.459-27.73c20.426-16.915 40.67-29.67 60.911-29.763zM180.732 203.349L83.217 280.25a228.675 228.675 0 0 1 72.19-104.632z" fill="#D5562C" p-id="8586"></path><path d="M367.258 361.13c-1.387-4.53 23.755-14.605 26.343-14.697s36.973-6.286 40.763-4.53l12.108 5.639a104.17 104.17 0 0 0 46.678-29.948l-0.647 23.108c-8.32 13.402-58.88 44.551-83.651 59.525-1.11 0.555-1.848 2.126-2.773 2.773a43.998 43.998 0 0 0-9.243 8.042 190.408 190.408 0 0 1-29.578-49.913z" fill="#F0B991" p-id="8587"></path><path d="M468.932 284.688l19.32 8.504 4.99 24.402-0.647 23.108 12.663-20.89a46.678 46.678 0 0 0 0.555-25.51 22.46 22.46 0 0 0-13.773-6.748z" fill="#7E3430" p-id="8588"></path><path d="M226.67 194.66a220.448 220.448 0 0 1 73.39 5.731c40.856-45.754 86.794-62.3 135.783-60.542a203.348 203.348 0 0 0-68.585 100.473 212.592 212.592 0 0 0 0 120.16 150.108 150.108 0 0 0 30.225 50.56 139.849 139.849 0 0 1-2.218 67.197 53.24 53.24 0 0 0-45.291-14.974c-95.02-5.453-125.43 56.199-110.918 164.436-38.082-99.18-6.1-173.125 93.726-219.524-35.864-54.72-21.907-133.287-6.563-183.476-22.091-16.084-58.14-24.402-99.55-30.04z m400.32 421.764c-13.587-51.207-57.215-64.702-126.816-44.552-33.09 18.486-78.66 24.125-100.565 7.764a5.546 5.546 0 0 0-1.201-0.832 170.905 170.905 0 0 1-53.056-38.728 39.006 39.006 0 0 0-5.453-4.806l-6.563 17.191c-1.11 39.93 59.433 73.946 137.075 60.08 69.232-12.477 119.7-8.41 156.579 3.883z" fill="#FF9D00" p-id="8589"></path><path d="M759.352 672.9a566.141 566.141 0 0 0 30.317-111.843l14.512 40.67a740.56 740.56 0 0 0 7.21-214.533 184.862 184.862 0 0 1 43.35 73.021c-0.648-139.201-41.224-227.011-107.59-277.294 22.275-1.109 52.316 11.37 94.465 46.216-34.662-66.828-87.81-115.91-146.504-159.444 77.272 20.427 158.15 59.71 243.926 195.862l-32.35-86.609-68.77-72.003 58.694 53.425 4.437-11.461c121.639 149.368 105.834 278.31 67.474 403.831L759.723 672.9z" fill="#F5B044" p-id="8590"></path><path d="M875.907 579.267c49.82-76.903 63.594-172.108 42.98-284.966 76.811 144.655 77.089 309.367-30.779 502.641l-72.558 45.2z" fill="#FF9D00" p-id="8591"></path><path d="M715.632 732.888c36.972-27.73 59.34-87.07 73.945-171.46 20.612 31.52 26.343 78.382 17.562 140.403 32.259-40.486 40.3-120.16 47.324-201.501 53.056 154.73 20.335 290.234-68.86 369.726 4.898-4.16-47.048-16.454-29.764-38.544 38.636-48.62 50.006-150.2 39.93-152.142-36.972 49.913-60.726 58.602-79.767 53.518z" fill="#FF9D00" p-id="8592"></path><path d="M612.2 831.882c94.558-24.218 150.11-72.837 180.334-136.984-1.848 88.272-34.57 155.47-113.228 190.963-47.88-13.033-66.365-31.889-67.105-54.35z" fill="#FF9D00" p-id="8593"></path><path d="M772.014 913.683l-24.123 24.31 26.342 0.554a231.078 231.078 0 0 1-101.12 25.973 301.049 301.049 0 0 1 98.901-50.837z" fill="#10549A" p-id="8594"></path></svg>