<?xml version="1.0" standalone="no"?><!DOCTYPE svg PUBLIC "-//W3C//DTD SVG 1.1//EN" "http://www.w3.org/Graphics/SVG/1.1/DTD/svg11.dtd"><svg t="1593852914672" class="icon" viewBox="0 0 1024 1024" version="1.1" xmlns="http://www.w3.org/2000/svg" p-id="15392" xmlns:xlink="http://www.w3.org/1999/xlink" width="200" height="200"><defs><style type="text/css"></style></defs><path d="M755.54 586.163h236.063c1.824-16.384 2.56-33.088 2.56-50.208 0-80.224-21.536-155.455-59.136-220.255 38.88-103.296 37.504-190.975-14.56-243.391-49.504-49.28-182.303-41.28-332.414 25.184-11.104-0.832-22.304-1.28-33.632-1.28-206.047 0-378.91 141.791-426.718 332.862 64.64-82.752 132.639-142.751 223.487-186.431-8.256 7.744-56.448 55.648-64.576 63.776-239.551 239.487-315.103 552.317-233.791 633.597 61.792 61.76 173.759 51.328 302.367-11.648 59.808 30.464 127.487 47.616 199.231 47.616 193.119 0 356.798-124.319 416.094-297.439h-237.855c-32.736 60.384-96.736 101.472-170.207 101.472s-137.471-41.088-170.207-101.472c-14.56-27.264-22.912-58.56-22.912-91.648v-0.736h386.27zM369.622 470.131c5.472-97.12 86.208-174.591 184.767-174.591s179.327 77.472 184.767 174.591h-369.534zM918.291 121.141c33.536 33.888 32.672 96.224 4 174.015-49.12-74.912-120.511-133.951-204.799-167.647 90.112-38.624 163.391-43.744 200.767-6.368zM114.807 924.593c-42.784-42.784-29.888-132.607 25.216-240.831 34.304 96.256 101.152 177.087 187.327 229.151-95.424 43.328-173.535 50.688-212.575 11.68z" fill="#1296db" p-id="15393"></path></svg>