<?xml version="1.0" standalone="no"?><!DOCTYPE svg PUBLIC "-//W3C//DTD SVG 1.1//EN" "http://www.w3.org/Graphics/SVG/1.1/DTD/svg11.dtd"><svg t="1593852621594" class="icon" viewBox="0 0 1024 1024" version="1.1" xmlns="http://www.w3.org/2000/svg" p-id="13159" xmlns:xlink="http://www.w3.org/1999/xlink" width="200" height="200"><defs><style type="text/css"></style></defs><path d="M512 512m-512 0a512 512 0 1 0 1024 0 512 512 0 1 0-1024 0Z" fill="#1DA2F8" p-id="13160"></path><path d="M512 75.78a6.244 6.244 0 0 1-6.244-6.244V40.964a6.244 6.244 0 0 1 12.488 0v28.572A6.244 6.244 0 0 1 512 75.78zM512 989.28a6.244 6.244 0 0 1-6.244-6.244v-28.572a6.244 6.244 0 0 1 12.488 0v28.572A6.244 6.244 0 0 1 512 989.28zM435.16 82.504a6.246 6.246 0 0 1-6.144-5.162l-4.962-28.138a6.242 6.242 0 1 1 12.298-2.166l4.962 28.138a6.242 6.242 0 0 1-6.154 7.328zM593.788 982.126a6.246 6.246 0 0 1-6.144-5.162l-4.962-28.138a6.242 6.242 0 0 1 5.064-7.232 6.236 6.236 0 0 1 7.234 5.066l4.962 28.136a6.242 6.242 0 0 1-6.154 7.33zM360.668 102.464a6.246 6.246 0 0 1-5.866-4.11l-9.774-26.848a6.25 6.25 0 0 1 3.734-8.004 6.246 6.246 0 0 1 8 3.732l9.772 26.848a6.244 6.244 0 0 1-5.866 8.382zM673.104 960.874a6.246 6.246 0 0 1-5.866-4.11l-9.772-26.848a6.244 6.244 0 0 1 11.732-4.272l9.774 26.848a6.25 6.25 0 0 1-5.868 8.382zM290.774 135.06a6.244 6.244 0 0 1-5.414-3.124l-14.286-24.744a6.244 6.244 0 0 1 2.286-8.528 6.24 6.24 0 0 1 8.53 2.284l14.286 24.744a6.244 6.244 0 0 1-5.402 9.368zM747.524 926.174a6.244 6.244 0 0 1-5.414-3.124l-14.286-24.744a6.244 6.244 0 0 1 2.286-8.528 6.24 6.24 0 0 1 8.53 2.284l14.286 24.744a6.244 6.244 0 0 1-5.402 9.368zM227.592 179.296c-1.78 0-3.552-0.758-4.786-2.23L204.44 155.18a6.246 6.246 0 0 1 9.568-8.028l18.366 21.886a6.242 6.242 0 0 1-4.782 10.258zM814.778 879.078c-1.78 0-3.552-0.758-4.786-2.23l-18.364-21.886a6.242 6.242 0 1 1 9.568-8.028l18.362 21.886a6.242 6.242 0 0 1-4.78 10.258zM173.05 233.834a6.202 6.202 0 0 1-4.008-1.46l-21.886-18.366a6.244 6.244 0 1 1 8.024-9.568l21.886 18.366a6.244 6.244 0 0 1-4.016 11.028zM872.83 821.02a6.22 6.22 0 0 1-4.012-1.46l-21.884-18.366a6.246 6.246 0 0 1 8.028-9.568l21.884 18.366a6.25 6.25 0 0 1 0.77 8.798 6.234 6.234 0 0 1-4.786 2.23zM128.808 297.012a6.218 6.218 0 0 1-3.116-0.838l-24.744-14.286a6.244 6.244 0 1 1 6.244-10.812l24.744 14.286a6.244 6.244 0 0 1-3.128 11.65zM919.922 753.762a6.212 6.212 0 0 1-3.116-0.838l-24.742-14.286a6.244 6.244 0 1 1 6.244-10.812l24.742 14.286a6.244 6.244 0 0 1-3.128 11.65zM96.22 366.914c-0.71 0-1.43-0.122-2.134-0.378l-26.85-9.772a6.244 6.244 0 0 1 4.268-11.736l26.85 9.772a6.244 6.244 0 0 1-2.134 12.114zM954.63 679.348c-0.71 0-1.43-0.122-2.138-0.378l-26.848-9.772a6.244 6.244 0 0 1 4.276-11.736l26.848 9.772a6.244 6.244 0 0 1-2.138 12.114zM76.262 441.412c-0.36 0-0.724-0.032-1.09-0.096l-28.138-4.962a6.244 6.244 0 0 1 2.17-12.298l28.138 4.962a6.244 6.244 0 0 1-1.08 12.394zM975.884 600.04c-0.36 0-0.724-0.032-1.09-0.096l-28.136-4.962a6.244 6.244 0 0 1 2.17-12.298l28.138 4.962a6.244 6.244 0 0 1-1.082 12.394zM69.534 518.244H40.964a6.244 6.244 0 0 1 0-12.488h28.57a6.244 6.244 0 0 1 0 12.488zM983.038 518.244h-28.574a6.244 6.244 0 0 1 0-12.488h28.574a6.244 6.244 0 0 1 0 12.488zM48.114 600.04a6.246 6.246 0 0 1-1.08-12.394l28.138-4.962a6.242 6.242 0 1 1 2.17 12.298l-28.138 4.962a6.36 6.36 0 0 1-1.09 0.096zM947.734 441.412a6.246 6.246 0 0 1-1.08-12.394l28.138-4.962a6.242 6.242 0 1 1 2.17 12.298l-28.136 4.962a6.364 6.364 0 0 1-1.092 0.096zM69.368 679.348a6.246 6.246 0 0 1-2.134-12.114l26.85-9.772a6.244 6.244 0 0 1 4.268 11.736l-26.85 9.772a6.168 6.168 0 0 1-2.134 0.378zM927.782 366.914a6.246 6.246 0 0 1-2.138-12.114l26.848-9.772a6.246 6.246 0 0 1 4.276 11.736l-26.848 9.772a6.28 6.28 0 0 1-2.138 0.378zM104.076 753.762a6.244 6.244 0 0 1-3.128-11.652l24.744-14.286a6.244 6.244 0 0 1 6.244 10.812l-24.744 14.286a6.194 6.194 0 0 1-3.116 0.84zM895.194 297.012a6.244 6.244 0 0 1-3.128-11.652l24.742-14.286a6.244 6.244 0 1 1 6.244 10.812l-24.742 14.286a6.2 6.2 0 0 1-3.116 0.84zM151.168 821.02a6.242 6.242 0 0 1-4.014-11.028l21.886-18.366a6.246 6.246 0 0 1 8.024 9.568l-21.886 18.366a6.208 6.208 0 0 1-4.01 1.46zM850.952 233.834a6.244 6.244 0 0 1-4.016-11.028l21.884-18.366a6.248 6.248 0 0 1 8.028 9.568l-21.884 18.366c-1.172 0.98-2.594 1.46-4.012 1.46zM209.22 879.078a6.244 6.244 0 0 1-4.78-10.258l18.366-21.886a6.246 6.246 0 0 1 9.568 8.028l-18.366 21.886a6.238 6.238 0 0 1-4.788 2.23zM796.408 179.296a6.244 6.244 0 0 1-4.78-10.258l18.364-21.886a6.246 6.246 0 0 1 9.568 8.028l-18.362 21.886a6.24 6.24 0 0 1-4.79 2.23zM276.476 926.174a6.244 6.244 0 0 1-5.402-9.366l14.286-24.744a6.236 6.236 0 0 1 8.53-2.284 6.244 6.244 0 0 1 2.286 8.528l-14.286 24.744a6.246 6.246 0 0 1-5.414 3.122zM733.226 135.06a6.244 6.244 0 0 1-5.402-9.366l14.286-24.744a6.234 6.234 0 0 1 8.53-2.284 6.244 6.244 0 0 1 2.286 8.528l-14.286 24.744a6.246 6.246 0 0 1-5.414 3.122zM350.898 960.874a6.246 6.246 0 0 1-5.868-8.382l9.774-26.848a6.244 6.244 0 0 1 11.732 4.272l-9.772 26.848a6.244 6.244 0 0 1-5.866 4.11zM663.332 102.464a6.244 6.244 0 0 1-5.866-8.382l9.772-26.848a6.244 6.244 0 0 1 11.734 4.272l-9.774 26.848a6.24 6.24 0 0 1-5.866 4.11zM430.212 982.126a6.244 6.244 0 0 1-6.154-7.328l4.962-28.136a6.244 6.244 0 0 1 12.298 2.166l-4.962 28.138a6.25 6.25 0 0 1-6.144 5.16zM588.84 82.504a6.244 6.244 0 0 1-6.154-7.328l4.962-28.138a6.244 6.244 0 0 1 12.298 2.166l-4.962 28.138a6.25 6.25 0 0 1-6.144 5.162zM477.47 123.642a6.24 6.24 0 0 1-6.212-5.698l-6.53-74.642a6.242 6.242 0 0 1 5.676-6.764 6.23 6.23 0 0 1 6.762 5.676l6.53 74.642a6.242 6.242 0 0 1-6.226 6.786zM553.046 987.488a6.24 6.24 0 0 1-6.212-5.698l-6.53-74.642a6.242 6.242 0 0 1 5.676-6.764 6.22 6.22 0 0 1 6.762 5.676l6.53 74.642a6.242 6.242 0 0 1-6.226 6.786zM409.476 135.634c-2.758 0-5.28-1.84-6.026-4.628l-19.394-72.374a6.24 6.24 0 0 1 4.414-7.646 6.228 6.228 0 0 1 7.646 4.414l19.394 72.374a6.24 6.24 0 0 1-6.034 7.86zM633.91 973.23c-2.758 0-5.28-1.84-6.026-4.628l-19.392-72.374a6.24 6.24 0 0 1 4.414-7.646 6.23 6.23 0 0 1 7.646 4.414l19.392 72.374a6.24 6.24 0 0 1-6.034 7.86zM344.602 159.248a6.244 6.244 0 0 1-5.662-3.606l-31.666-67.908a6.244 6.244 0 1 1 11.316-5.276l31.666 67.908a6.244 6.244 0 0 1-5.654 8.882zM711.072 945.148a6.244 6.244 0 0 1-5.662-3.606l-31.664-67.908a6.244 6.244 0 1 1 11.316-5.276l31.664 67.908a6.244 6.244 0 0 1-5.654 8.882zM284.808 193.77a6.244 6.244 0 0 1-5.122-2.662l-42.978-61.378a6.244 6.244 0 1 1 10.232-7.162l42.978 61.378a6.248 6.248 0 0 1-5.11 9.824zM782.182 904.094a6.244 6.244 0 0 1-5.122-2.662l-42.976-61.378a6.244 6.244 0 1 1 10.232-7.162l42.974 61.378a6.248 6.248 0 0 1-5.108 9.824zM231.908 238.154a6.228 6.228 0 0 1-4.414-1.828L174.512 183.342a6.244 6.244 0 0 1 8.83-8.83l52.982 52.982a6.244 6.244 0 0 1-4.416 10.66zM845.074 851.316a6.228 6.228 0 0 1-4.414-1.828l-52.982-52.982a6.244 6.244 0 0 1 8.83-8.83l52.982 52.982a6.244 6.244 0 0 1-4.416 10.658zM187.52 291.046a6.216 6.216 0 0 1-3.576-1.13L122.568 246.94a6.246 6.246 0 0 1 7.164-10.23l61.376 42.974a6.248 6.248 0 0 1-3.588 11.362zM897.846 788.42a6.216 6.216 0 0 1-3.576-1.13l-61.378-42.974a6.248 6.248 0 0 1-1.534-8.696 6.248 6.248 0 0 1 8.698-1.534l61.378 42.976a6.248 6.248 0 0 1 1.534 8.696 6.248 6.248 0 0 1-5.122 2.662zM153 350.842c-0.884 0-1.78-0.188-2.634-0.588L82.46 318.59a6.24 6.24 0 1 1 5.274-11.316l67.908 31.664a6.24 6.24 0 0 1-2.642 11.904zM938.9 717.314c-0.884 0-1.782-0.188-2.638-0.588l-67.906-31.664a6.24 6.24 0 1 1 5.28-11.316l67.906 31.664a6.24 6.24 0 0 1 3.018 8.296 6.24 6.24 0 0 1-5.66 3.608zM129.392 415.726a6.16 6.16 0 0 1-1.62-0.216l-72.376-19.392a6.24 6.24 0 0 1-4.414-7.646 6.23 6.23 0 0 1 7.646-4.414l72.376 19.392a6.24 6.24 0 0 1 4.414 7.646 6.25 6.25 0 0 1-6.026 4.63zM966.988 640.158a6.16 6.16 0 0 1-1.62-0.216l-72.376-19.394a6.24 6.24 0 0 1-4.414-7.646 6.234 6.234 0 0 1 7.646-4.414l72.376 19.394a6.24 6.24 0 0 1 4.414 7.646 6.24 6.24 0 0 1-6.026 4.63zM117.402 483.72c-0.184 0-0.366-0.008-0.552-0.026l-74.642-6.53a6.24 6.24 0 0 1-5.674-6.764 6.24 6.24 0 0 1 6.764-5.676l74.642 6.53a6.24 6.24 0 0 1 5.674 6.764 6.24 6.24 0 0 1-6.212 5.702zM981.252 559.298c-0.18 0-0.366-0.008-0.55-0.026l-74.644-6.53a6.24 6.24 0 0 1-5.676-6.764 6.228 6.228 0 0 1 6.762-5.676l74.644 6.53a6.24 6.24 0 0 1 5.676 6.764 6.242 6.242 0 0 1-6.212 5.702zM42.75 559.298a6.242 6.242 0 0 1-0.538-12.462l74.642-6.53a6.214 6.214 0 0 1 6.764 5.676 6.242 6.242 0 0 1-5.674 6.764l-74.642 6.53a7.4 7.4 0 0 1-0.552 0.022zM906.596 483.72a6.24 6.24 0 0 1-0.536-12.462l74.644-6.53c3.456-0.324 6.46 2.244 6.762 5.676a6.242 6.242 0 0 1-5.676 6.764l-74.644 6.53a7.39 7.39 0 0 1-0.55 0.022zM57.01 640.158a6.24 6.24 0 0 1-1.612-12.274l72.376-19.394a6.236 6.236 0 0 1 7.646 4.414 6.24 6.24 0 0 1-4.414 7.646l-72.376 19.394a6.22 6.22 0 0 1-1.62 0.214zM894.608 415.726a6.244 6.244 0 0 1-1.612-12.274l72.376-19.392a6.238 6.238 0 0 1 7.646 4.414 6.24 6.24 0 0 1-4.414 7.646l-72.376 19.392a6.306 6.306 0 0 1-1.62 0.214zM85.098 717.314a6.24 6.24 0 0 1-2.64-11.904l67.908-31.664a6.24 6.24 0 1 1 5.274 11.316l-67.908 31.664a6.206 6.206 0 0 1-2.634 0.588zM871 350.842a6.244 6.244 0 0 1-2.644-11.902l67.906-31.664a6.244 6.244 0 1 1 5.28 11.316l-67.906 31.664a6.212 6.212 0 0 1-2.636 0.586zM126.156 788.42a6.244 6.244 0 0 1-3.588-11.358l61.376-42.976a6.244 6.244 0 1 1 7.164 10.23l-61.376 42.974a6.226 6.226 0 0 1-3.576 1.13zM836.478 291.046a6.244 6.244 0 0 1-3.588-11.358l61.378-42.974a6.244 6.244 0 1 1 7.164 10.23l-61.378 42.974a6.24 6.24 0 0 1-3.576 1.128zM178.928 851.316a6.244 6.244 0 0 1-4.414-10.658l52.982-52.982a6.244 6.244 0 0 1 8.83 8.83l-52.982 52.982c-1.22 1.218-2.82 1.828-4.416 1.828zM792.094 238.154a6.244 6.244 0 0 1-4.414-10.658l52.982-52.982a6.244 6.244 0 0 1 8.83 8.83l-52.982 52.982a6.25 6.25 0 0 1-4.416 1.828zM241.818 904.094a6.248 6.248 0 0 1-5.11-9.826l42.978-61.378a6.248 6.248 0 0 1 8.698-1.534 6.248 6.248 0 0 1 1.534 8.696l-42.978 61.378a6.24 6.24 0 0 1-5.122 2.664zM739.192 193.77a6.248 6.248 0 0 1-5.11-9.826l42.976-61.378a6.246 6.246 0 0 1 10.232 7.162l-42.974 61.378a6.244 6.244 0 0 1-5.124 2.664zM312.928 945.148a6.24 6.24 0 0 1-5.656-8.884l31.666-67.908a6.24 6.24 0 1 1 11.316 5.276l-31.666 67.908a6.238 6.238 0 0 1-5.66 3.608zM679.402 159.248a6.24 6.24 0 0 1-5.656-8.884l31.664-67.908a6.244 6.244 0 0 1 11.316 5.276L685.062 155.64a6.242 6.242 0 0 1-5.66 3.608zM390.09 973.23a6.24 6.24 0 0 1-6.034-7.862l19.394-72.374a6.24 6.24 0 0 1 7.646-4.414 6.24 6.24 0 0 1 4.414 7.646l-19.394 72.374a6.242 6.242 0 0 1-6.026 4.63zM614.526 135.634a6.24 6.24 0 0 1-6.034-7.862l19.392-72.374a6.224 6.224 0 0 1 7.646-4.414 6.24 6.24 0 0 1 4.414 7.646l-19.392 72.374a6.248 6.248 0 0 1-6.026 4.63zM470.952 987.488a6.24 6.24 0 0 1-6.226-6.79l6.53-74.642a6.232 6.232 0 0 1 6.762-5.676 6.24 6.24 0 0 1 5.676 6.764l-6.53 74.642a6.242 6.242 0 0 1-6.212 5.702zM546.528 123.642a6.24 6.24 0 0 1-6.226-6.79l6.53-74.642a6.212 6.212 0 0 1 6.762-5.676 6.24 6.24 0 0 1 5.676 6.764L552.74 117.94a6.238 6.238 0 0 1-6.212 5.702z" fill="#F2F2F2" p-id="13161"></path><path d="M573.856 573.856L849.754 174.246 450.144 450.144 174.246 849.754z" fill="#F2F2F2" p-id="13162"></path><path d="M573.856 573.856L849.754 174.246 174.246 849.754z" fill="#CCCCCC" p-id="13163"></path><path d="M573.856 573.856L849.754 174.246 450.144 450.144z" fill="#FF525D" p-id="13164"></path><path d="M573.856 573.856L849.754 174.246 512 512z" fill="#EF4152" p-id="13165"></path></svg>