<svg xmlns="http://www.w3.org/2000/svg" width="200px" height="200px" viewBox="0 0 72 72"><g fill-rule="evenodd"><g fill="#5c9e31"><path d="M42.147 10.948h3.701v.076q-.001 3.842-2.791 7.163c-2.244 2.63-4.958 4.15-7.9 3.91a8 8 0 0 1-.06-.97c0-2.457 1.067-5.088 2.962-7.238q1.42-1.634 3.608-2.717q.24-.117.48-.224M16.229 30.855c.19-.397.413-.783.637-1.158c1.163-1.992 3.215-3.563 5.153-4.716s2.33-1.228 4.584-1.266c1.234 0 2.802.648 4.812 1.4c2.005.754 3.494 1.08 4.058 1.08c.422 0 1.852-.302 4.276-1.194c2.293-.827 4.228-1.205 5.813-1.07c4.295.348 6.166 1.015 8.312 4.074c-1.283.78-2.086 1.804-2.936 2.792z"/><path d="M40.786 21.533s-1.37.89-5.422 1.54c-.144.024.37-1.366.37-1.366l4.007-.999"/></g><path fill="#fcea2b" d="M52.664 28.936c-2.292 1.94-3.461 4.153-3.941 6.986l-34.167-.24c.295-2.298 1.031-3.72 2.105-5.517c.172-.294.471-.89.66-1.165z"/><path fill="#f4aa41" d="M49.197 34.143c-.238.94-.644 2.04-.634 3.098c.019 1.842.086 3.508.833 5l-34.56.025c-.259-1.501-.336-2.876-.336-4.33c0-1.252.053-2.595.25-3.72z"/><path fill="#ea5a47" d="M49.38 42.228c.563 1.749 1.585 2.942 3.014 4.27c1.053 1 1.662 1.899 2.97 2.449c-.007.02-.007.054-.013.073l-38.698-.015c-.082-.224-.692-1.966-.77-2.194c-.738-2.153-.807-2.502-1.048-4.564z"/><path fill="#8967aa" d="M52.064 55.972a28 28 0 0 0 2.456-4.527c.318-.759.782-1.549 1.066-2.373c.895.376.727.322-.22-.1l-38.72.027c.95 2.626 2.507 4.972 3.916 7.014z"/><path fill="#61b2e4" d="M26.56 61.195c-1.099-.265-1.788-.646-2.883-1.667c-.928-.812-1.801-1.661-3.165-3.565l31.638-.05c-1.376 1.95-1.736 2.566-2.615 3.332c-1.16 1.07-2.316 1.667-3.616 1.883l-1.532.1c-.93-.135-2.03-.384-3.2-.866c-1.637-.67-3.621-1.05-4.998-1.05c-1.443 0-2.942.113-4.598.783c-1.12.455-2.82 1.07-3.649 1.233z"/></g><path fill="none" stroke="#000" stroke-linecap="round" stroke-linejoin="round" stroke-width="2" d="M35.156 22.097a8 8 0 0 1-.059-.97c0-2.457 1.067-5.088 2.962-7.238q1.42-1.634 3.608-2.717c1.456-.711 2.833-1.105 4.128-1.172q.055.514.053 1.024q-.001 3.842-2.791 7.163c-.83.973-1.725 1.795-2.672 2.431m15.314 30.223a28 28 0 0 1-2.745 4.948c-1.443 2.064-2.625 3.492-3.535 4.285q-2.117 1.951-4.544 2.006c-1.163 0-2.565-.331-4.198-1.004q-2.455-1.004-4.518-1.002q-2.164-.002-4.647 1.002q-2.485 1.008-4.015 1.058q-2.329.1-4.647-2.06q-1.48-1.295-3.697-4.436q-2.38-3.355-3.911-7.79q-1.642-4.79-1.642-9.282c0-3.43.74-6.39 2.22-8.87q1.745-2.985 4.65-4.715a12.5 12.5 0 0 1 6.285-1.779c1.234 0 2.852.383 4.862 1.135c2.005.754 3.292 1.137 3.856 1.137c.422 0 1.852-.447 4.276-1.34q3.438-1.24 5.813-1.034c4.295.347 7.521 2.045 9.667 5.104Q49.47 31.707 49.526 38c.034 3.266 1.216 5.984 3.538 8.142a11.6 11.6 0 0 0 3.536 2.326a38 38 0 0 1-.901 2.373"/></svg>