<?xml version="1.0" standalone="no"?><!DOCTYPE svg PUBLIC "-//W3C//DTD SVG 1.1//EN" "http://www.w3.org/Graphics/SVG/1.1/DTD/svg11.dtd"><svg t="1696854550771" class="icon" viewBox="0 0 1024 1024" version="1.1" xmlns="http://www.w3.org/2000/svg" p-id="7261" xmlns:xlink="http://www.w3.org/1999/xlink" width="200" height="200"><path d="M190.728166 0.006826a119.890286 119.890286 0 0 0-121.170254 118.610319v786.326681A119.46363 119.46363 0 0 0 190.728166 1023.9808a119.46363 119.46363 0 0 0 121.596909-118.610318V118.617145A120.743598 120.743598 0 0 0 190.728166 0.006826z m401.056473 364.364073a119.46363 119.46363 0 0 0-165.969115-28.159284 114.34376 114.34376 0 0 0-29.012596 162.129212l341.324658 475.721242a119.890286 119.890286 0 0 0 165.542459 28.159285 114.34376 114.34376 0 0 0 31.572531-158.715966l-2.559935-3.839903-340.471346-475.294586z m155.729375-50.345387a158.28931 158.28931 0 0 0 159.569278-156.582687A158.28931 158.28931 0 0 0 747.514014 0.860138a158.28931 158.28931 0 0 0-159.995933 156.582687 158.28931 158.28931 0 0 0 159.995933 156.582687z" p-id="7262" fill="#6e13b4"></path></svg>