<?xml version="1.0" standalone="no"?><!DOCTYPE svg PUBLIC "-//W3C//DTD SVG 1.1//EN" "http://www.w3.org/Graphics/SVG/1.1/DTD/svg11.dtd"><svg t="1696851327299" class="icon" viewBox="0 0 1024 1024" version="1.1" xmlns="http://www.w3.org/2000/svg" p-id="13457" xmlns:xlink="http://www.w3.org/1999/xlink" width="200" height="200"><path d="M0 0m184.32 0l655.36 0q184.32 0 184.32 184.32l0 655.36q0 184.32-184.32 184.32l-655.36 0q-184.32 0-184.32-184.32l0-655.36q0-184.32 184.32-184.32Z" fill="#FFFFFF" opacity=".863" p-id="13458"></path><path d="M512 512m-440.32 0a440.32 440.32 0 1 0 880.64 0 440.32 440.32 0 1 0-880.64 0Z" fill="#468EE7" p-id="13459"></path><path d="M512 179.2a5.12 5.12 0 0 1-5.12-5.12v-61.44a5.12 5.12 0 0 1 5.12-5.12 5.12 5.12 0 0 1 5.12 5.12v61.44a5.12 5.12 0 0 1-5.12 5.12zM543.6928 149.85216a5.12 5.12 0 0 1-4.6592-5.53984l2.67264-30.60736a5.12 5.12 0 0 1 5.53984-4.64896 5.12 5.12 0 0 1 4.6592 5.53984l-2.67264 30.59712a5.12 5.12 0 0 1-5.53984 4.6592zM569.76384 184.2688a5.12 5.12 0 0 1-4.1472-5.9392l10.69056-60.5184a5.12 5.12 0 0 1 5.92896-4.1472 5.12 5.12 0 0 1 4.15744 5.92896l-10.69056 60.5184a5.12 5.12 0 0 1-5.9392 4.15744zM606.08512 160.8704a5.12 5.12 0 0 1-3.62496-6.27712l7.95648-29.67552a5.12 5.12 0 0 1 6.27712-3.61472 5.12 5.12 0 0 1 3.61472 6.27712l-7.95648 29.67552a5.12 5.12 0 0 1-6.27712 3.61472zM625.82784 199.2704a5.12 5.12 0 0 1-3.06176-6.5536l21.01248-57.74336a5.12 5.12 0 0 1 6.56384-3.06176 5.12 5.12 0 0 1 3.06176 6.56384l-21.01248 57.73312a5.12 5.12 0 0 1-6.56384 3.06176zM665.63072 182.53824a5.12 5.12 0 0 1-2.47808-6.79936l12.98432-27.8528a5.12 5.12 0 0 1 6.79936-2.46784 5.12 5.12 0 0 1 2.47808 6.79936l-12.98432 27.8528a5.12 5.12 0 0 1-6.79936 2.46784zM678.4 223.78496a5.12 5.12 0 0 1-1.87392-6.99392l30.72-53.20704a5.12 5.12 0 0 1 6.99392-1.87392 5.12 5.12 0 0 1 1.87392 6.99392l-30.72 53.20704a5.12 5.12 0 0 1-6.99392 1.87392zM720.49664 214.2208a5.12 5.12 0 0 1-1.24928-7.13728l17.63328-25.15968a5.12 5.12 0 0 1 7.12704-1.24928 5.12 5.12 0 0 1 1.24928 7.12704l-17.63328 25.15968a5.12 5.12 0 0 1-7.12704 1.24928zM725.9136 257.05472a5.12 5.12 0 0 1-0.6144-7.20896l39.48544-47.06304a5.12 5.12 0 0 1 7.20896-0.63488 5.12 5.12 0 0 1 0.63488 7.20896l-39.49568 47.07328a5.12 5.12 0 0 1-7.20896 0.62464zM769.04448 254.95552a5.12 5.12 0 0 1 0-7.23968l21.71904-21.72928a5.12 5.12 0 0 1 7.24992 0 5.12 5.12 0 0 1 0 7.24992l-21.72928 21.7088a5.12 5.12 0 0 1-7.23968 0zM809.7792 303.5136a5.12 5.12 0 0 1 1.25952-7.12704l25.15968-17.63328a5.12 5.12 0 0 1 7.12704 1.24928 5.12 5.12 0 0 1-1.24928 7.12704l-25.15968 17.63328a5.12 5.12 0 0 1-7.12704-1.24928zM800.21504 345.6a5.12 5.12 0 0 1 1.87392-6.99392l53.20704-30.72a5.12 5.12 0 0 1 6.99392 1.87392 5.12 5.12 0 0 1-1.87392 6.99392l-53.20704 30.72a5.12 5.12 0 0 1-6.99392-1.87392zM841.46176 358.36928a5.12 5.12 0 0 1 2.47808-6.79936l27.84256-12.98432a5.12 5.12 0 0 1 6.79936 2.47808 5.12 5.12 0 0 1-2.47808 6.79936l-27.84256 12.98432a5.12 5.12 0 0 1-6.79936-2.47808zM824.7296 398.17216a5.12 5.12 0 0 1 3.06176-6.5536l57.73312-21.02272a5.12 5.12 0 0 1 6.5536 3.06176 5.12 5.12 0 0 1-3.05152 6.5536l-57.73312 21.02272a5.12 5.12 0 0 1-6.56384-3.06176zM863.1296 417.92512a5.12 5.12 0 0 1 3.62496-6.27712l29.67552-7.95648a5.12 5.12 0 0 1 6.26688 3.61472 5.12 5.12 0 0 1-3.61472 6.27712l-29.67552 7.95648a5.12 5.12 0 0 1-6.27712-3.61472zM839.7312 454.23616a5.12 5.12 0 0 1 4.1472-5.9392l60.5184-10.68032a5.12 5.12 0 0 1 5.9392 4.1472 5.12 5.12 0 0 1-4.15744 5.9392l-60.5184 10.68032a5.12 5.12 0 0 1-5.9392-4.1472z" fill="#FFFFFF" p-id="13460"></path><path d="M874.14784 480.3072a5.12 5.12 0 0 1 4.6592-5.53984l30.59712-2.67264a5.12 5.12 0 0 1 5.53984 4.64896 5.12 5.12 0 0 1-4.64896 5.55008l-30.59712 2.67264a5.12 5.12 0 0 1-5.55008-4.6592z" fill="#FFFFFF" opacity=".85" p-id="13461"></path><path d="M844.8 512a5.12 5.12 0 0 1 5.12-5.12h61.44a5.12 5.12 0 0 1 5.12 5.12 5.12 5.12 0 0 1-5.12 5.12h-61.44a5.12 5.12 0 0 1-5.12-5.12zM874.1376 543.68256a5.12 5.12 0 0 1 5.55008-4.6592l30.60736 2.68288a5.12 5.12 0 0 1 4.64896 5.55008 5.12 5.12 0 0 1-5.55008 4.64896l-30.59712-2.67264a5.12 5.12 0 0 1-4.6592-5.55008zM839.74144 569.78432a5.12 5.12 0 0 1 5.92896-4.1472l60.50816 10.67008a5.12 5.12 0 0 1 4.1472 5.92896 5.12 5.12 0 0 1-5.92896 4.1472l-60.50816-10.65984a5.12 5.12 0 0 1-4.1472-5.9392zM863.1296 606.08512a5.12 5.12 0 0 1 6.27712-3.61472l29.66528 7.94624a5.12 5.12 0 0 1 3.62496 6.26688 5.12 5.12 0 0 1-6.26688 3.62496l-29.67552-7.94624a5.12 5.12 0 0 1-3.62496-6.27712zM824.7296 625.82784a5.12 5.12 0 0 1 6.5536-3.06176l57.74336 21.01248a5.12 5.12 0 0 1 3.06176 6.56384 5.12 5.12 0 0 1-6.56384 3.06176l-57.73312-21.01248a5.12 5.12 0 0 1-3.06176-6.56384zM841.46176 665.63072a5.12 5.12 0 0 1 6.79936-2.47808l27.8528 12.98432a5.12 5.12 0 0 1 2.46784 6.79936 5.12 5.12 0 0 1-6.79936 2.47808l-27.8528-12.98432a5.12 5.12 0 0 1-2.46784-6.79936zM800.21504 678.4a5.12 5.12 0 0 1 6.99392-1.87392l53.20704 30.72a5.12 5.12 0 0 1 1.87392 6.99392 5.12 5.12 0 0 1-6.99392 1.87392l-53.20704-30.72a5.12 5.12 0 0 1-1.87392-6.99392zM809.7792 720.4864a5.12 5.12 0 0 1 7.13728-1.24928l25.15968 17.63328a5.12 5.12 0 0 1 1.24928 7.12704 5.12 5.12 0 0 1-7.12704 1.24928l-25.15968-17.62304a5.12 5.12 0 0 1-1.24928-7.13728z" fill="#FFFFFF" p-id="13462"></path><path d="M766.94528 725.9136a5.12 5.12 0 0 1 7.20896-0.6144l47.06304 39.48544a5.12 5.12 0 0 1 0.63488 7.20896 5.12 5.12 0 0 1-7.20896 0.63488l-47.07328-39.49568a5.12 5.12 0 0 1-0.62464-7.20896z" fill="#FFFFFF" opacity=".996" p-id="13463"></path><path d="M769.04448 769.04448a5.12 5.12 0 0 1 7.23968 0l21.72928 21.71904a5.12 5.12 0 0 1 0 7.24992 5.12 5.12 0 0 1-7.24992 0l-21.7088-21.72928a5.12 5.12 0 0 1 0-7.23968zM725.9136 766.94528a5.12 5.12 0 0 1 7.20896 0.62464l39.50592 47.06304a5.12 5.12 0 0 1-0.62464 7.2192 5.12 5.12 0 0 1-7.2192-0.62464l-39.50592-47.07328a5.12 5.12 0 0 1 0.62464-7.20896zM720.4864 809.7792a5.12 5.12 0 0 1 7.12704 1.25952l17.63328 25.15968a5.12 5.12 0 0 1-1.24928 7.12704 5.12 5.12 0 0 1-7.12704-1.24928l-17.63328-25.15968a5.12 5.12 0 0 1 1.24928-7.12704zM678.4 800.21504a5.12 5.12 0 0 1 6.99392 1.87392l30.72 53.20704a5.12 5.12 0 0 1-1.87392 6.99392 5.12 5.12 0 0 1-6.99392-1.87392l-30.72-53.20704a5.12 5.12 0 0 1 1.87392-6.99392zM665.63072 841.46176a5.12 5.12 0 0 1 6.79936 2.47808l12.98432 27.84256a5.12 5.12 0 0 1-2.47808 6.79936 5.12 5.12 0 0 1-6.79936-2.47808l-12.98432-27.84256a5.12 5.12 0 0 1 2.47808-6.79936zM625.82784 824.70912a5.12 5.12 0 0 1 6.56384 3.06176l21.01248 57.7536a5.12 5.12 0 0 1-3.06176 6.56384 5.12 5.12 0 0 1-6.56384-3.06176l-21.01248-57.7536a5.12 5.12 0 0 1 3.06176-6.56384zM606.08512 863.1296a5.12 5.12 0 0 1 6.26688 3.61472l7.95648 29.67552a5.12 5.12 0 0 1-3.61472 6.27712 5.12 5.12 0 0 1-6.27712-3.61472l-7.95648-29.67552a5.12 5.12 0 0 1 3.61472-6.27712zM569.78432 839.75168a5.12 5.12 0 0 1 5.9392 4.1472l10.65984 60.5184a5.12 5.12 0 0 1-4.1472 5.91872 5.12 5.12 0 0 1-5.9392-4.1472l-10.65984-60.50816a5.12 5.12 0 0 1 4.1472-5.9392zM543.6928 874.14784a5.12 5.12 0 0 1 5.53984 4.6592l2.67264 30.59712a5.12 5.12 0 0 1-4.6592 5.53984 5.12 5.12 0 0 1-5.53984-4.64896l-2.67264-30.59712a5.12 5.12 0 0 1 4.6592-5.55008zM511.97952 844.82048a5.12 5.12 0 0 1 5.12 5.12v61.44a5.12 5.12 0 0 1-5.12 5.12 5.12 5.12 0 0 1-5.12-5.12v-61.44a5.12 5.12 0 0 1 5.12-5.12zM480.29696 874.15808a5.12 5.12 0 0 1 4.64896 5.55008l-2.67264 30.59712a5.12 5.12 0 0 1-5.53984 4.64896 5.12 5.12 0 0 1-4.6592-5.53984l2.67264-30.59712a5.12 5.12 0 0 1 5.53984-4.6592zM454.21568 839.74144a5.12 5.12 0 0 1 4.1472 5.9392l-10.69056 60.5184a5.12 5.12 0 0 1-5.92896 4.1472 5.12 5.12 0 0 1-4.15744-5.92896l10.69056-60.5184a5.12 5.12 0 0 1 5.9392-4.15744zM417.8944 863.15008a5.12 5.12 0 0 1 3.62496 6.27712l-7.95648 29.67552a5.12 5.12 0 0 1-6.26688 3.61472 5.12 5.12 0 0 1-3.62496-6.27712l7.95648-29.67552a5.12 5.12 0 0 1 6.27712-3.61472zM398.16192 824.75008a5.12 5.12 0 0 1 3.06176 6.5536l-21.01248 57.74336a5.12 5.12 0 0 1-6.56384 3.06176 5.12 5.12 0 0 1-3.06176-6.56384l21.01248-57.73312a5.12 5.12 0 0 1 6.56384-3.06176zM358.3488 841.48224a5.12 5.12 0 0 1 2.47808 6.79936l-12.98432 27.8528a5.12 5.12 0 0 1-6.79936 2.46784 5.12 5.12 0 0 1-2.47808-6.79936l12.98432-27.8528a5.12 5.12 0 0 1 6.79936-2.46784zM345.57952 800.23552a5.12 5.12 0 0 1 1.87392 6.99392l-30.72 53.20704a5.12 5.12 0 0 1-6.99392 1.87392 5.12 5.12 0 0 1-1.87392-6.99392l30.72-53.20704a5.12 5.12 0 0 1 6.99392-1.87392zM303.49312 809.80992a5.12 5.12 0 0 1 1.24928 7.12704l-17.63328 25.15968a5.12 5.12 0 0 1-7.12704 1.24928 5.12 5.12 0 0 1-1.24928-7.12704l17.63328-25.15968a5.12 5.12 0 0 1 7.12704-1.24928zM298.06592 766.95552a5.12 5.12 0 0 1 0.63488 7.20896l-39.49568 47.06304a5.12 5.12 0 0 1-7.20896 0.63488 5.12 5.12 0 0 1-0.63488-7.20896l39.49568-47.07328a5.12 5.12 0 0 1 7.20896-0.62464zM254.93504 769.06496a5.12 5.12 0 0 1 0 7.23968l-21.71904 21.72928a5.12 5.12 0 0 1-7.24992 0 5.12 5.12 0 0 1 0-7.24992l21.72928-21.7088a5.12 5.12 0 0 1 7.23968 0zM214.20032 720.50688a5.12 5.12 0 0 1-1.25952 7.13728l-25.15968 17.63328a5.12 5.12 0 0 1-7.12704-1.25952 5.12 5.12 0 0 1 1.24928-7.12704l25.15968-17.63328a5.12 5.12 0 0 1 7.12704 1.24928zM223.76448 678.42048a5.12 5.12 0 0 1-1.87392 6.99392l-53.20704 30.72a5.12 5.12 0 0 1-6.99392-1.87392 5.12 5.12 0 0 1 1.87392-6.99392l53.20704-30.72a5.12 5.12 0 0 1 6.99392 1.87392zM182.51776 665.6512a5.12 5.12 0 0 1-2.47808 6.79936l-27.84256 12.98432a5.12 5.12 0 0 1-6.79936-2.47808 5.12 5.12 0 0 1 2.47808-6.79936l27.84256-12.98432a5.12 5.12 0 0 1 6.79936 2.47808zM199.24992 625.83808a5.12 5.12 0 0 1-3.06176 6.5536l-57.73312 21.02272a5.12 5.12 0 0 1-6.5536-3.06176 5.12 5.12 0 0 1 3.05152-6.5536l57.73312-21.02272a5.12 5.12 0 0 1 6.56384 3.06176zM160.84992 606.1056a5.12 5.12 0 0 1-3.61472 6.26688l-29.68576 7.95648a5.12 5.12 0 0 1-6.26688-3.61472 5.12 5.12 0 0 1 3.61472-6.27712l29.67552-7.95648a5.12 5.12 0 0 1 6.27712 3.61472zM184.25856 569.78432a5.12 5.12 0 0 1-4.15744 5.9392l-60.5184 10.68032a5.12 5.12 0 0 1-5.9392-4.1472 5.12 5.12 0 0 1 4.15744-5.9392l60.5184-10.68032a5.12 5.12 0 0 1 5.9392 4.1472zM149.84192 543.71328a5.12 5.12 0 0 1-4.6592 5.53984l-30.59712 2.67264a5.12 5.12 0 0 1-5.53984-4.64896 5.12 5.12 0 0 1 4.64896-5.55008l30.59712-2.67264a5.12 5.12 0 0 1 5.55008 4.6592zM179.17952 512.02048a5.12 5.12 0 0 1-5.12 5.12h-61.44a5.12 5.12 0 0 1-5.12-5.12 5.12 5.12 0 0 1 5.12-5.12h61.44a5.12 5.12 0 0 1 5.12 5.12zM149.85216 480.33792a5.12 5.12 0 0 1-5.55008 4.6592l-30.60736-2.68288a5.12 5.12 0 0 1-4.64896-5.55008 5.12 5.12 0 0 1 5.55008-4.64896l30.59712 2.67264a5.12 5.12 0 0 1 4.6592 5.55008zM184.23808 454.22592a5.12 5.12 0 0 1-5.92896 4.1472l-60.50816-10.67008a5.12 5.12 0 0 1-4.1472-5.92896 5.12 5.12 0 0 1 5.92896-4.1472l60.50816 10.65984a5.12 5.12 0 0 1 4.1472 5.9392zM160.84992 417.93536a5.12 5.12 0 0 1-6.27712 3.61472l-29.66528-7.94624a5.12 5.12 0 0 1-3.62496-6.26688 5.12 5.12 0 0 1 6.26688-3.62496l29.67552 7.94624a5.12 5.12 0 0 1 3.62496 6.27712zM199.24992 398.19264a5.12 5.12 0 0 1-6.5536 3.06176l-57.74336-21.01248a5.12 5.12 0 0 1-3.06176-6.56384 5.12 5.12 0 0 1 6.56384-3.06176l57.73312 21.01248a5.12 5.12 0 0 1 3.06176 6.56384zM182.51776 358.37952a5.12 5.12 0 0 1-6.79936 2.47808l-27.8528-12.98432a5.12 5.12 0 0 1-2.46784-6.79936 5.12 5.12 0 0 1 6.79936-2.47808l27.8528 12.98432a5.12 5.12 0 0 1 2.46784 6.79936zM223.76448 345.62048a5.12 5.12 0 0 1-6.99392 1.87392l-53.20704-30.72a5.12 5.12 0 0 1-1.87392-6.99392 5.12 5.12 0 0 1 6.99392-1.87392l53.20704 30.72a5.12 5.12 0 0 1 1.87392 6.99392zM214.20032 303.52384a5.12 5.12 0 0 1-7.13728 1.24928l-25.15968-17.63328a5.12 5.12 0 0 1-1.24928-7.12704 5.12 5.12 0 0 1 7.12704-1.24928l25.15968 17.62304a5.12 5.12 0 0 1 1.25952 7.13728zM257.04448 298.09664a5.12 5.12 0 0 1-7.20896 0.63488l-47.06304-39.49568a5.12 5.12 0 0 1-0.63488-7.20896 5.12 5.12 0 0 1 7.20896-0.63488l47.07328 39.49568a5.12 5.12 0 0 1 0.62464 7.20896zM254.93504 254.96576a5.12 5.12 0 0 1-7.23968 0l-21.72928-21.71904a5.12 5.12 0 0 1 0-7.24992 5.12 5.12 0 0 1 7.24992 0l21.7088 21.72928a5.12 5.12 0 0 1 0 7.23968zM298.0864 257.0752a5.12 5.12 0 0 1-7.2192-0.62464l-39.50592-47.06304a5.12 5.12 0 0 1 0.62464-7.2192 5.12 5.12 0 0 1 7.2192 0.63488l39.50592 47.06304a5.12 5.12 0 0 1-0.63488 7.20896zM303.49312 214.24128a5.12 5.12 0 0 1-7.12704-1.25952l-17.63328-25.15968a5.12 5.12 0 0 1 1.24928-7.12704 5.12 5.12 0 0 1 7.12704 1.24928l17.63328 25.15968a5.12 5.12 0 0 1-1.24928 7.13728zM345.58976 223.80544a5.12 5.12 0 0 1-6.99392-1.87392l-30.72-53.20704a5.12 5.12 0 0 1 1.87392-6.99392 5.12 5.12 0 0 1 6.99392 1.87392l30.72 53.20704a5.12 5.12 0 0 1-1.87392 6.99392zM358.3488 182.55872a5.12 5.12 0 0 1-6.79936-2.47808l-12.98432-27.84256a5.12 5.12 0 0 1 2.47808-6.79936 5.12 5.12 0 0 1 6.79936 2.47808l12.98432 27.84256a5.12 5.12 0 0 1-2.47808 6.79936zM398.16192 199.31136a5.12 5.12 0 0 1-6.56384-3.06176l-21.01248-57.7536a5.12 5.12 0 0 1 3.06176-6.56384 5.12 5.12 0 0 1 6.56384 3.06176l21.01248 57.7536a5.12 5.12 0 0 1-3.06176 6.56384zM417.91488 160.88064a5.12 5.12 0 0 1-6.27712-3.61472l-7.95648-29.67552a5.12 5.12 0 0 1 3.61472-6.27712 5.12 5.12 0 0 1 6.27712 3.61472l7.95648 29.68576a5.12 5.12 0 0 1-3.61472 6.26688zM454.1952 184.2688a5.12 5.12 0 0 1-5.9392-4.1472l-10.65984-60.5184a5.12 5.12 0 0 1 4.1472-5.91872 5.12 5.12 0 0 1 5.9392 4.1472l10.65984 60.50816a5.12 5.12 0 0 1-4.1472 5.9392zM480.29696 149.87264a5.12 5.12 0 0 1-5.55008-4.6592l-2.67264-30.59712a5.12 5.12 0 0 1 4.6592-5.53984 5.12 5.12 0 0 1 5.53984 4.6592l2.67264 30.58688a5.12 5.12 0 0 1-4.64896 5.55008z" fill="#FFFFFF" p-id="13464"></path><path d="M477.6448 472.18688l344.41216-222.208-311.99232 262.44096z" fill="#ED6C60" p-id="13465"></path><path d="M510.0544 512.4096l312.0128-262.3488-279.08096 302.97088z" fill="#B73C2F" p-id="13466"></path><path d="M203.06944 770.70336l274.5344-298.53696 32.4608 40.2432z" fill="#FFFFFF" p-id="13467"></path><path d="M203.0592 770.6624l306.9952-258.2528 32.9728 40.6528z" fill="#C7C7C7" p-id="13468"></path></svg>