<?xml version="1.0" standalone="no"?><!DOCTYPE svg PUBLIC "-//W3C//DTD SVG 1.1//EN" "http://www.w3.org/Graphics/SVG/1.1/DTD/svg11.dtd"><svg t="1696854967512" class="icon" viewBox="0 0 1024 1024" version="1.1" xmlns="http://www.w3.org/2000/svg" p-id="5809" xmlns:xlink="http://www.w3.org/1999/xlink" width="200" height="200"><path d="M274.280342 654.005224c9.69685-50.631144 37.479613-89.838098 78.277808-119.7872 24.891923-18.273179 51.358715-34.419927 77.313853-51.221592 41.430598-26.816762 76.131935-59.491952 93.820805-107.012246 19.757996-53.076846 18.346857-104.753809-17.61417-150.34517-45.558615-57.763588-107.086947-75.44018-178.190355-62.706157-51.713802 9.265014-94.065376 36.024471-130.726344 72.526827-15.237029 15.172561-28.224832 32.16763-38.193881 53.68776 3.436262-2.326998 5.288446-3.546779 7.104815-4.814656 19.720134-13.749142 41.452087-20.349467 65.608254-19.402909 40.377616 1.577938 73.809029 35.942607 74.717725 76.282361 0.600681 26.546609-7.622608 50.202379-23.496134 70.628594-20.225647 26.028816-42.022069 50.841945-63.272046 76.06542-45.746904 54.301743-69.424162 116.076692-59.873646 187.533141 9.601682 71.829955 47.079248 126.060067 110.722754 160.828942 40.101323 21.906939 84.121909 29.192879 131.572618 28.729322-2.565429-1.067308-3.574409-1.6158-4.650927-1.913583C306.245358 837.991586 258.034333 738.816842 274.280342 654.005224z" p-id="5810" fill="#f7982e"></path><path d="M635.544269 478.401788c36.902468 12.149714 70.174246 31.611975 103.969956 50.177819 35.504632 19.507286 72.874751 20.302395 111.1331 9.019421 7.475252-2.204202 10.504238-6.281053 9.79304-14.048971-0.939395-10.228969-0.403183-20.640086-1.924839-30.758538-10.134825-67.343781-46.508243-113.77323-111.137193-136.75157-8.093329-2.877537-10.689457-7.361665-13.099343-15.040555-4.628414-14.756075-10.866489-29.082362-17.427928-43.12417-2.700505-5.77554-7.957229-10.355859-13.009292-16.677844-4.817726 7.206122-8.905834 12.56927-12.20088 18.387789-12.351306 21.800515-16.32685 45.835931-17.216103 70.381977-0.272199 7.540743-2.243087 13.130042-8.242731 17.286712-13.294794 9.212826-25.922393 19.730367-40.148395 27.185152-30.444383 15.95232-61.732993 30.297027-91.821265 44.88835C568.329425 459.151351 602.155834 467.410456 635.544269 478.401788z" p-id="5811" fill="#f7982e"></path><path d="M673.563164 811.088866c-12.976546-3.01159-26.302039-4.510734-40.022529-6.780427 0.694825-2.615571 1.196245-4.867868 1.888-7.060813 10.070356-31.897478 11.874445-64.206324 7.691169-97.453542-13.919011-110.61019-125.914758-176.923502-215.691457-157.747767-47.78226 10.205433-81.620949 36.890188-101.228519 81.56876 71.884191-71.190389 179.466418-49.432853 223.887117 12.062733 29.315676 40.581254 37.269835 85.23322 22.286586 133.007293-15.030321 47.921429-49.582255 77.453023-97.616248 95.934956 61.796438 1.750877 233.275951-3.621481 254.119675-10.259668-2.342348-4.469801-4.089132-9.146311-6.938016-13.010315C709.838346 824.957735 692.984493 815.59346 673.563164 811.088866z" p-id="5812" fill="#f7982e"></path><path d="M534.685163 725.447347c-0.433882-56.465013-42.902112-102.863762-102.437044-103.161544-64.24214-0.324388-103.433744 52.433186-103.439884 102.995769-0.00614 54.04387 44.74918 103.402021 102.848413 102.490256C488.697783 827.724755 535.121092 782.037203 534.685163 725.447347zM431.128623 772.184811c-26.053376-0.092098-46.77328-21.143553-46.654576-47.393403 0.113587-25.645077 22.200628-47.642067 47.403636-47.214325 25.605168 0.431835 47.329958 22.166859 47.504944 47.521317C479.561705 751.020792 457.772446 772.282025 431.128623 772.184811z" p-id="5813" fill="#f7982e"></path><path d="M863.073332 624.677269c-5.123694-20.192901-19.295462-31.397081-38.401612-36.170804-13.314237-3.325745-27.16878-4.612041-40.83708-6.376221-37.299511-4.811586-70.12615-20.315698-101.579513-40.246633-63.176878-40.032762-132.093481-57.691957-206.838835-48.972365-12.923334 1.50733-25.443485 6.463202-38.149878 9.827833 0.225127 0.895393 0.448208 1.786693 0.671289 2.681062 8.211009 0 16.518209-0.797156 24.616654 0.158612 19.765159 2.331092 40.018436 3.377934 59.039651 8.670473 67.429739 18.757203 115.761514 62.206784 150.210094 121.894188 4.919033 8.525164 10.476609 14.224979 19.98824 14.746866 13.645788 0.74599 27.538193 2.113127 40.957831 0.376577 11.717879-1.51654 23.611767-5.593392 34.234709-10.9197 30.68793-15.395642 61.841463-22.267143 95.451956-9.4093 0.747014-1.765203 1.174756-2.301416 1.152243-2.819209C863.542007 626.968451 863.355765 625.800859 863.073332 624.677269z" p-id="5814" fill="#f7982e"></path></svg>