<svg id="图层_1" data-name="图层 1" xmlns="http://www.w3.org/2000/svg" viewBox="0 0 218.25 214.82"><defs><style>.cls-1{fill:#fffb5f;}.cls-2{fill:#ce181e;}</style></defs><title>ofa_log</title><rect class="cls-1" x="190.44" y="199.14" width="78" height="83" transform="translate(-174.6 146.22) rotate(-44.96)"/><path d="M227.71,187.26l55.12,55.19L231.17,294l-55.11-55.19,51.65-51.58m0-7.07L169,238.84l62.18,62.26,58.73-58.65-62.19-62.26Z" transform="translate(-71.65 -86.28)"/><rect class="cls-2" x="169.19" y="201.28" width="88" height="49" transform="translate(-168.86 130.38) rotate(-44.96)"/><path d="M227,180.89,258.1,212l-58.73,58.65-31.09-31.14L227,180.89m0-7.07-65.8,65.72,38.16,38.21L265.17,212,227,173.82Z" transform="translate(-71.65 -86.28)"/><path class="cls-2" d="M150.65,241.78a76.48,76.48,0,1,1,54.06-22.36A76,76,0,0,1,150.65,241.78Z" transform="translate(-71.65 -86.28)"/><path d="M150.66,91.28a74,74,0,1,1-52.3,21.64,73.49,73.49,0,0,1,52.3-21.64h0m0-5a79,79,0,1,0,55.9,23.18,78.8,78.8,0,0,0-55.9-23.18Z" transform="translate(-71.65 -86.28)"/></svg>